<svg xmlns="http://www.w3.org/2000/svg" viewBox="0 0 48 48" fill="none" stroke-width="2" stroke-linecap="round" stroke-linejoin="round">
    <!-- Leaves (Cyan) -->
    <path d="M24 22 V14" stroke="#00f2fe" />
    <path d="M24 14 C18 6, 8 12, 18 22" stroke="#00f2fe" />
    <path d="M24 14 C30 6, 40 12, 30 22" stroke="#00f2fe" />

    <!-- Berry / Shell (White) -->
    <path d="M14 22 C6 22, 6 34, 16 40 Q24 44, 32 40 C42 34, 42 22, 34 22 Q24 18, 14 22" stroke="#ffffff" />
    
    <!-- 3x3 Button Grid (Cyan) -->
    <g stroke="#00f2fe">
        <!-- Row 1 -->
        <rect x="17.5" y="24" width="3" height="3" rx="1" />
        <rect x="22.5" y="24" width="3" height="3" rx="1" />
        <rect x="27.5" y="24" width="3" height="3" rx="1" />
        <!-- Row 2 -->
        <rect x="17.5" y="29" width="3" height="3" rx="1" />
        <rect x="22.5" y="29" width="3" height="3" rx="1" />
        <rect x="27.5" y="29" width="3" height="3" rx="1" />
        <!-- Row 3 -->
        <rect x="17.5" y="34" width="3" height="3" rx="1" />
        <rect x="22.5" y="34" width="3" height="3" rx="1" />
        <rect x="27.5" y="34" width="3" height="3" rx="1" />
    </g>
</svg>
